<svg xmlns="http://www.w3.org/2000/svg" xmlns:xlink="http://www.w3.org/1999/xlink" version="1.1" id="Слой_1" x="0px" y="0px" style="enable-background:new 0 0 240 240;" xml:space="preserve" viewBox="60.43 60.33 119.15 119.15">
<style type="text/css">
	.st0{opacity:0.6;fill:#FF1A1A;}
	.st1{fill:none;}
</style>
<g id="Слой_2_1_">
	<g id="Слой_1-2">
		<path class="st0" d="M134.8,120l41.7-41.7c4.1-4.1,4.1-10.7,0-14.8c-4.1-4.1-10.7-4.1-14.8,0L120,105.2L78.3,63.4    c-4.1-4.1-10.7-4.1-14.8,0c-4.1,4.1-4.1,10.7,0,14.8l41.7,41.7l-41.7,41.7c-4.1,4.1-4.1,10.7,0,14.8c4.1,4.1,10.7,4.1,14.8,0    l41.7-41.7l41.7,41.7c4.1,4.1,10.7,4.1,14.8,0c4.1-4.1,4.1-10.7,0-14.8L134.8,120z"/>
		<rect class="st1" width="240" height="240"/>
	</g>
</g>
</svg>